<svg width="462" height="462" viewBox="0 0 462 462" fill="none" xmlns="http://www.w3.org/2000/svg">
<path d="M59.5875 283.193C59.4375 274.307 58.7965 238.688 60.4955 231.911C61.6985 226.937 64.2055 222.372 67.7585 218.688C74.0845 212.194 82.5215 209.737 91.4735 210.009C94.6935 210.107 99.4775 209.964 102.618 211.241C130.092 222.413 160.572 224.187 189.913 223.667C196.2 223.556 202.663 227.752 208.862 228.634C235.056 232.906 256.454 225.725 277.216 210.169L342.012 210.313C349.939 210.316 359.027 210.893 366.995 210.37C380.593 209.478 396.361 218.684 398.669 232.91C400.469 244.007 399.486 260.781 399.46 272.674L399.508 338.718C399.546 347.256 399.295 356.663 399.536 365.099C399.685 376.238 399.813 386.021 391.331 394.696C382.383 403.847 371.441 403.273 359.734 403.256L356.49 403.248C347.868 423.105 336.681 438.309 318.874 451.115C312.37 455.794 298.803 466.628 291.456 458.998C290.006 452.922 295.802 443.888 297.296 436.858C298.572 430.855 298.896 430.437 299.226 423.876C297.845 414.756 295.563 408.114 286.935 403.241C269.92 402.581 248.326 403.336 230.893 403.348L91.1405 403.458C76.2565 403.334 62.9995 396.39 60.2845 381.086C58.5105 371.087 59.4825 356.059 59.5065 345.557L59.5875 283.193Z" fill="#F6F6F5"/>
<path d="M59.5875 283.193C59.9025 286.938 59.9735 290.174 60.0305 293.939C63.0495 293.975 65.4245 293.671 67.6265 295.783C68.1385 298.904 67.7765 306.076 67.7715 309.667L67.7725 343.266C67.7675 350.522 67.0325 363.102 68.8325 369.547C70.5465 375.757 74.3085 381.205 79.5095 385.007C89.2885 392.071 101.519 390.78 112.992 390.786L144.902 390.789L248.638 390.804C258.334 390.773 268.822 390.927 278.503 390.759C295.483 390.463 302.625 404.215 299.757 419.393C299.438 420.854 299.285 422.302 299.226 423.876C297.845 414.756 295.563 408.114 286.935 403.241C269.92 402.581 248.326 403.336 230.893 403.348L91.1405 403.458C76.2565 403.334 62.9995 396.39 60.2845 381.086C58.5105 371.087 59.4825 356.059 59.5065 345.557L59.5875 283.193Z" fill="#E1E1E1"/>
<path d="M399.536 365.099C399.685 376.238 399.813 386.021 391.331 394.696C382.383 403.847 371.442 403.273 359.735 403.256L356.49 403.248C347.868 423.105 336.681 438.309 318.874 451.115C312.37 455.794 298.804 466.628 291.457 458.998C295.374 456.485 299.501 454.602 303.582 452.389C325.131 440.728 341.825 421.086 351.221 398.611C354.986 389.606 358.094 390.265 366.702 389.526C382.374 388.18 388.156 379.688 391.331 365.208L399.536 365.099Z" fill="#E1E1E1"/>
<path d="M171.3 278.103C185.231 275.627 198.538 284.894 201.045 298.818C203.553 312.743 194.315 326.07 180.395 328.608C166.431 331.154 153.053 321.881 150.537 307.913C148.022 293.944 157.325 280.587 171.3 278.103Z" fill="#281F3D"/>
<path d="M166.923 286.872C171.138 286.18 175.13 288.991 175.899 293.192C176.667 297.392 173.93 301.435 169.744 302.28C166.967 302.841 164.104 301.859 162.255 299.712C160.407 297.566 159.862 294.588 160.83 291.926C161.798 289.263 164.128 287.331 166.923 286.872Z" fill="#F6F6F5"/>
<path d="M280.524 278.159C289.59 276.404 298.9 279.657 304.9 286.676C310.9 293.695 312.664 303.397 309.519 312.079C306.374 320.761 298.806 327.083 289.702 328.631C275.847 330.988 262.675 321.759 260.16 307.932C257.646 294.106 266.726 280.83 280.524 278.159Z" fill="#281F3D"/>
<path d="M276.299 286.901C280.439 286.129 284.455 288.749 285.416 292.849C286.377 296.95 283.943 301.081 279.891 302.229C277.099 303.02 274.099 302.213 272.081 300.128C270.063 298.043 269.354 295.018 270.235 292.254C271.117 289.489 273.446 287.433 276.299 286.901Z" fill="#F6F6F5"/>
<path d="M162.691 36.7808C161.207 41.4758 157.997 55.2958 164.076 57.6608C168.236 56.8798 169.376 44.4248 171.172 39.2858C172.533 35.3018 174.439 31.5258 176.835 28.0638C186.881 13.6418 204.041 4.28478 221.145 1.25678C243.171 -2.56122 265.816 2.39779 284.231 15.0708C298.591 25.1248 311.344 41.4198 311.476 59.3928C311.504 63.1438 311.039 67.9288 314.462 70.2368L315.749 69.9538C318.6 67.3658 318.924 65.5188 320.043 61.9018C358.722 52.1738 393.373 72.0048 403.176 110.946C406.345 128.178 404.128 143.978 394.095 158.7C385.213 171.709 371.537 180.669 356.063 183.619C347.789 185.172 341.731 184.56 333.575 183.045C319.06 192.795 303.602 199.961 285.551 196.476C277.273 194.886 269.56 191.145 263.186 185.63C261.486 184.259 260.457 183.098 258.346 182.819C253.558 184.365 257.236 190.042 258.901 192.639C262.177 196.139 265.677 198.708 269.689 201.264C242.634 223.142 193.533 223.722 174.553 190.661C168.19 179.579 167.58 170.292 171.013 158.225C173.358 152.413 175.962 147.927 180.645 143.623C193.803 131.53 213.393 128.134 230.62 130.667C237.429 131.668 244.259 132.998 251.055 131.431C272.52 126.765 269.804 102.224 295.363 101.94C303.599 101.848 308.488 103.039 316.461 106.06C319.71 107.292 324.351 110.568 327.31 110.995C330.763 107.443 326.343 103.611 323.455 101.514C313.185 94.1658 300.392 91.2588 287.955 93.4458C267.307 96.9098 262.375 118.526 251.784 120.263C242.842 121.731 234.765 119.538 225.909 119.157C221.358 118.962 216.295 119.741 211.843 119.107C206.548 112.601 214.612 100.058 212.757 92.5498L211.959 91.7798C210.577 91.8688 209.771 92.6828 208.84 93.7008C202.807 100.31 201.117 108.727 201.741 117.39C201.839 118.68 201.993 119.964 202.203 121.24C177.824 126.207 157.827 143.603 156.735 169.649C156.792 176.636 157.1 178.944 159.032 185.652C113.858 209.236 50.7815 186.052 58.6745 129.233C62.0075 110.574 71.8165 98.1488 88.0545 88.9638C88.6485 91.3328 89.3005 93.8568 90.7395 96.9318C92.6195 100.949 99.3685 112.908 105.373 109.381C105.669 109.208 106.185 108.796 106.079 108.341C104.365 101.019 98.2215 94.5708 97.0385 86.5588C94.6025 69.8478 103.514 53.0908 117.491 43.9968C131.329 34.9928 146.69 33.5498 162.691 36.7808Z" fill="#F6F6F5"/>
<path d="M403.176 110.946C406.345 128.178 404.128 143.978 394.095 158.7C385.213 171.709 371.537 180.669 356.063 183.619C347.789 185.172 341.731 184.56 333.575 183.045C319.06 192.795 303.602 199.961 285.551 196.476C277.273 194.886 269.56 191.145 263.186 185.63C265.591 185.342 268.332 185.707 270.691 186.162C289.268 189.747 309.194 186.492 323.395 173.29C326.513 170.392 329.204 166.943 332.114 163.743C344.032 165.328 352.344 166.359 363.823 161.752C387.512 152.245 397.005 134.152 403.176 110.946Z" fill="#E1E1E1"/>
<path d="M159.032 185.652C113.858 209.236 50.7815 186.052 58.6745 129.233C61.1055 131.074 61.4725 132.985 62.1695 135.845C69.2845 165.045 97.3295 183.459 126.884 181.5C134.227 181.013 148.997 177.525 155.822 173.322C156.423 171.92 156.328 171.622 156.388 170.112L156.735 169.649C156.792 176.636 157.1 178.944 159.032 185.652Z" fill="#E1E1E1"/>
<path d="M269.689 201.264C242.634 223.142 193.533 223.722 174.553 190.661C168.19 179.579 167.58 170.292 171.013 158.225C172.901 160.814 174.711 168.654 176.085 172.238C182.031 187.75 196.878 197.79 212.661 201.345C228.223 204.736 244.147 200.511 258.088 193.232C258.413 193.062 258.629 192.865 258.901 192.639C262.177 196.139 265.677 198.708 269.689 201.264Z" fill="#E1E1E1"/>
<path d="M164.002 197.917C167.161 202.264 168.8 205.229 172.439 209.742C166.417 209.417 160.405 208.951 154.405 208.344L142.674 206.872C151.157 204.315 156.433 202.419 164.002 197.917Z" fill="#F6F6F5"/>
</svg>
